Radio-Canada-Regular-slant-8.ufo
<glyph name="numbersign" format="1">
  <advance width="738"/>
  <unicode hex="0023"/>
  <outline>
    <contour>
      <point x="93.38924860988307" y="202.0" type="line"/>
      <point x="649.3892486098831" y="202.0" type="line"/>
      <point x="660.0703520472648" y="278.0" type="line"/>
      <point x="104.07035204726482" y="278.0" type="line"/>
    </contour>
    <contour>
      <point x="117.0" y="0.0" type="line"/>
      <point x="203.0" y="0.0" type="line"/>
      <point x="467.97317594465005" y="690.0" type="line"/>
      <point x="381.97317594465005" y="690.0" type="line"/>
    </contour>
    <contour>
      <point x="174.90282389738528" y="412.0" type="line"/>
      <point x="730.9028238973852" y="412.0" type="line"/>
      <point x="741.583927334767" y="488.0" type="line"/>
      <point x="185.583927334767" y="488.0" type="line"/>
    </contour>
    <contour>
      <point x="367.0" y="0.0" type="line"/>
      <point x="453.0" y="0.0" type="line"/>
      <point x="717.97317594465" y="690.0" type="line"/>
      <point x="631.97317594465" y="690.0" type="line"/>
    </contour>
  </outline>
</glyph>
<glyph name="quotesingle" format="1">
  <advance width="232"/>
  <unicode hex="0027"/>
  <outline>
    <contour>
      <point x="166.18940098572182" y="720.0" type="line"/>
      <point x="148.05419231012397" y="470.0" type="line"/>
      <point x="216.05419231012397" y="470.0" type="line"/>
      <point x="268.1894009857218" y="720.0" type="line"/>
    </contour>
  </outline>
</glyph>
<glyph name="parenright" format="1">
  <advance width="332"/>
  <unicode hex="0029"/>
  <outline>
    <contour>
      <point x="-62.40546276696632" y="-195.0" type="curve"/>
      <point x="-34.44871865916916" y="-238.0" type="line"/>
      <point x="134.85401816630824" y="-122.0"/>
      <point x="263.46487839631" y="46.0"/>
      <point x="294.6649437002409" y="268.0" type="curve" smooth="yes"/>
      <point x="325.8650090041718" y="490.0"/>
      <point x="244.33532839947117" y="657.0"/>
      <point x="107.63806522494858" y="773.0" type="curve"/>
      <point x="67.59480933274574" y="730.0" type="line"/>
      <point x="177.27585835018508" y="621.0"/>
      <point x="237.82175311196897" y="447.0"/>
      <point x="212.6649437002409" y="268.0" type="curve" smooth="yes"/>
      <point x="187.50813428851285" y="89.0"/>
      <point x="77.91348821559434" y="-86.0"/>
    </contour>
  </outline>
</glyph>
<glyph name="hyphen" format="1">
  <advance width="368"/>
  <unicode hex="002D"/>
  <outline>
    <contour>
      <point x="93.02709615506198" y="235.0" type="line"/>
      <point x="341.027096155062" y="235.0" type="line"/>
      <point x="352.2703629312533" y="315.0" type="line"/>
      <point x="104.2703629312533" y="315.0" type="line"/>
    </contour>
  </outline>
</glyph>
<glyph name="two" format="1">
  <advance width="660"/>
  <unicode hex="0032"/>
  <outline>
    <contour>
      <point x="165.63801080500616" y="588.0" type="curve"/>
      <point x="221.50285654935072" y="523.0" type="line"/>
      <point x="276.37314329268463" y="579.0"/>
      <point x="328.5893683337564" y="609.0"/>
      <point x="399.5893683337564" y="609.0" type="curve"/>
      <point x="486.5893683337564" y="609.0"/>
      <point x="524.57854075572" y="552.0"/>
      <point x="515.583927334767" y="488.0" type="curve"/>
      <point x="507.9947222608379" y="434.0"/>
      <point x="482.35687471565893" y="401.0"/>
      <point x="385.4109037659557" y="316.0" type="curve" smooth="yes"/>
      <point x="101.27569509035783" y="66.0" type="line"/>
      <point x="143.0" y="0.0" type="line"/>
      <point x="440.1352086755979" y="250.0" type="line" smooth="yes"/>
      <point x="563.7514554846466" y="354.0"/>
      <point x="605.0271505750044" y="420.0"/>
      <point x="614.583927334767" y="488.0" type="curve"/>
      <point x="632.151531672566" y="613.0"/>
      <point x="543.378584291674" y="700.0"/>
      <point x="415.378584291674" y="700.0" type="curve" smooth="yes"/>
      <point x="318.378584291674" y="700.0"/>
      <point x="238.61641006887595" y="659.0"/>
    </contour>
    <contour>
      <point x="92.0" y="0.0" type="line"/>
      <point x="556.0" y="0.0" type="line"/>
      <point x="568.0865117844056" y="86.0" type="line"/>
      <point x="150.08651178440567" y="86.0" type="line"/>
      <point x="101.27569509035783" y="66.0" type="line"/>
    </contour>
  </outline>
</glyph>
<glyph name="three" format="1">
  <advance width="660"/>
  <unicode hex="0033"/>
  <outline>
    <contour>
      <point x="84.80543011500087" y="84.0" type="line"/>
      <point x="138.81081669404782" y="20.0"/>
      <point x="211.59459165297608" y="-10.0"/>
      <point x="307.5945916529761" y="-10.0" type="curve"/>
      <point x="444.5945916529761" y="-10.0"/>
      <point x="571.2756950903579" y="66.0"/>
      <point x="590.8108711139903" y="205.0" type="curve" smooth="yes"/>
      <point x="609.7838837988131" y="340.0"/>
      <point x="517.3406605585757" y="408.0"/>
      <point x="380.3406605585757" y="408.0" type="curve" smooth="yes"/>
      <point x="321.3406605585757" y="408.0" type="line"/>
      <point x="265.8109255339327" y="390.0" type="line"/>
      <point x="257.2379346170868" y="329.0" type="line"/>
      <point x="340.2379346170868" y="329.0" type="line" smooth="yes"/>
      <point x="437.2379346170868" y="329.0"/>
      <point x="502.77305622077677" y="283.0"/>
      <point x="491.81087111399023" y="205.0" type="curve" smooth="yes"/>
      <point x="480.2865226683941" y="123.0"/>
      <point x="406.3838076108937" y="81.0"/>
      <point x="320.3838076108937" y="81.0" type="curve"/>
      <point x="249.3838076108937" y="81.0"/>
      <point x="196.4757059743463" y="103.0"/>
      <point x="159.3622068747635" y="152.0" type="curve"/>
    </contour>
    <contour>
      <point x="179.18395998673248" y="599.0" type="line"/>
      <point x="574.1839599867325" y="599.0" type="line"/>
      <point x="626.6974808542923" y="624.0" type="line"/>
      <point x="635.97317594465" y="690.0" type="line"/>
      <point x="191.97317594465008" y="690.0" type="line"/>
    </contour>
    <contour>
      <point x="265.8109255339327" y="390.0" type="line"/>
      <point x="370.8109255339327" y="390.0" type="line"/>
      <point x="626.6974808542923" y="624.0" type="line"/>
      <point x="586.97317594465" y="690.0" type="line"/>
    </contour>
  </outline>
</glyph>
<glyph name="seven" format="1">
  <advance width="660"/>
  <unicode hex="0037"/>
  <outline>
    <contour>
      <point x="174.18395998673248" y="599.0" type="line"/>
      <point x="579.1839599867325" y="599.0" type="line"/>
      <point x="631.6974808542923" y="624.0" type="line"/>
      <point x="640.97317594465" y="690.0" type="line"/>
      <point x="186.97317594465008" y="690.0" type="line"/>
    </contour>
    <contour>
      <point x="196.0" y="0.0" type="line"/>
      <point x="302.0" y="0.0" type="line"/>
      <point x="631.6974808542923" y="624.0" type="line"/>
      <point x="575.97317594465" y="690.0" type="line"/>
    </contour>
  </outline>
</glyph>
<glyph name="eight" format="1">
  <advance width="660"/>
  <unicode hex="0038"/>
  <outline>
    <contour>
      <point x="108.31356440351371" y="173.0" type="curve"/>
      <point x="121.38386203083613" y="266.0"/>
      <point x="203.6433429641107" y="339.0"/>
      <point x="329.17307798875373" y="357.0" type="curve"/>
      <point x="369.11360793946767" y="321.0" type="line"/>
      <point x="274.4433320801222" y="302.0"/>
      <point x="211.87034116327635" y="241.0"/>
      <point x="203.15680941172806" y="179.0" type="curve"/>
      <point x="194.16219599077502" y="115.0"/>
      <point x="245.40002176797697" y="74.0"/>
      <point x="338.40002176797697" y="74.0" type="curve"/>
      <point x="439.40002176797697" y="74.0"/>
      <point x="493.72435932958456" y="119.0"/>
      <point x="500.75140106470417" y="169.0" type="curve"/>
      <point x="508.0595244692285" y="221.0"/>
      <point x="484.08656620434806" y="271.0"/>
      <point x="366.84874042714614" y="312.0" type="curve" smooth="yes"/>
      <point x="212.43794550107526" y="366.0"/>
      <point x="168.15147725262352" y="428.0"/>
      <point x="180.2379890370292" y="514.0" type="curve"/>
      <point x="194.7136950113755" y="617.0"/>
      <point x="294.378584291674" y="700.0"/>
      <point x="427.378584291674" y="700.0" type="curve"/>
      <point x="558.378584291674" y="700.0"/>
      <point x="636.6974808542923" y="624.0"/>
      <point x="622.3623157146483" y="522.0" type="curve"/>
      <point x="610.1352630955403" y="435.0"/>
      <point x="535.421731343992" y="373.0"/>
      <point x="410.17307798875373" y="357.0" type="curve"/>
      <point x="370.23254803803985" y="393.0" type="line"/>
      <point x="464.48120139327807" y="409.0"/>
      <point x="519.2271614589929" y="457.0"/>
      <point x="527.3785298717316" y="515.0" type="curve"/>
      <point x="535.3893574497679" y="572.0"/>
      <point x="496.9947766807803" y="619.0"/>
      <point x="415.9947766807803" y="619.0" type="curve"/>
      <point x="325.9947766807803" y="619.0"/>
      <point x="281.67043911917267" y="574.0"/>
      <point x="274.6433973840531" y="524.0" type="curve"/>
      <point x="268.3190598224455" y="479.0"/>
      <point x="298.69742643434984" y="439.0"/>
      <point x="407.4974155503613" y="402.0" type="curve" smooth="yes"/>
      <point x="569.7676696417299" y="347.0"/>
      <point x="613.6649437002409" y="268.0"/>
      <point x="601.4378910811329" y="181.0" type="curve"/>
      <point x="586.5405626026793" y="75.0"/>
      <point x="487.5945916529761" y="-10.0"/>
      <point x="326.5945916529761" y="-10.0" type="curve"/>
      <point x="175.59459165297608" y="-10.0"/>
      <point x="92.85407258625065" y="63.0"/>
    </contour>
  </outline>
</glyph>
<glyph name="equal" format="1">
  <advance width="660"/>
  <unicode hex="003D"/>
  <outline>
    <contour>
      <point x="121.27030851131089" y="130.0" type="line"/>
      <point x="575.2703085113109" y="130.0" type="line"/>
      <point x="586.5135752875022" y="210.0" type="line"/>
      <point x="132.5135752875022" y="210.0" type="line"/>
    </contour>
    <contour>
      <point x="155.00010883988483" y="370.0" type="line"/>
      <point x="609.0001088398849" y="370.0" type="line"/>
      <point x="620.2433756160762" y="450.0" type="line"/>
      <point x="166.24337561607615" y="450.0" type="line"/>
    </contour>
  </outline>
</glyph>
<glyph name="A" format="1">
  <advance width="656"/>
  <unicode hex="0041"/>
  <outline>
    <contour>
      <point x="20.0" y="0.0" type="line"/>
      <point x="120.0" y="0.0" type="line"/>
      <point x="427.32450082143487" y="600.0" type="line"/>
      <point x="431.97317594465005" y="690.0" type="line"/>
      <point x="384.97317594465005" y="690.0" type="line"/>
    </contour>
    <contour>
      <point x="177.26492193226395" y="194.0" type="line"/>
      <point x="533.264921932264" y="194.0" type="line"/>
      <point x="545.3514337166696" y="280.0" type="line"/>
      <point x="189.3514337166696" y="280.0" type="line"/>
    </contour>
    <contour>
      <point x="393.32450082143487" y="600.0" type="line"/>
      <point x="532.0" y="0.0" type="line"/>
      <point x="636.0" y="0.0" type="line"/>
      <point x="464.97317594465005" y="690.0" type="line"/>
      <point x="409.97317594465005" y="690.0" type="line"/>
    </contour>
    <contour>
      <point x="424.97317594465005" y="690.0" type="move" name="top"/>
    </contour>
    <contour>
      <point x="328.0" y="0.0" type="move" name="bottom"/>
    </contour>
  </outline>
</glyph>
<glyph name="F" format="1">
  <advance width="581"/>
  <unicode hex="0046"/>
  <outline>
    <contour>
      <point x="100.0" y="0.0" type="line"/>
      <point x="196.0" y="0.0" type="line"/>
      <point x="292.97317594465005" y="690.0" type="line"/>
      <point x="196.97317594465008" y="690.0" type="line"/>
    </contour>
    <contour>
      <point x="189.91359705547916" y="284.0" type="line"/>
      <point x="531.9135970554792" y="284.0" type="line"/>
      <point x="544.0001088398849" y="370.0" type="line"/>
      <point x="202.00010883988483" y="370.0" type="line"/>
    </contour>
    <contour>
      <point x="234.88666416024444" y="604.0" type="line"/>
      <point x="615.8866641602444" y="604.0" type="line"/>
      <point x="627.97317594465" y="690.0" type="line"/>
      <point x="246.97317594465008" y="690.0" type="line"/>
    </contour>
  </outline>
</glyph>
<glyph name="G" format="1">
  <advance width="701"/>
  <unicode hex="0047"/>
  <outline>
    <contour>
      <point x="108.48658797232504" y="345.0" type="curve" smooth="yes"/>
      <point x="76.30273682547741" y="116.0"/>
      <point x="198.59459165297608" y="-10.0"/>
      <point x="376.5945916529761" y="-10.0" type="curve" smooth="yes"/>
      <point x="471.6389464916858" y="-10.0"/>
      <point x="564.185143371667" y="27.999999999999993"/>
      <point x="632.524348445596" y="82.0" type="curve"/>
      <point x="559.7081451725013" y="126.0" type="line"/>
      <point x="508.3082032996898" y="91.0"/>
      <point x="456.8140148297868" y="76.0"/>
      <point x="399.68110343738175" y="76.0" type="curve" smooth="yes"/>
      <point x="267.68110343738175" y="76.0"/>
      <point x="183.17302356881132" y="172.0"/>
      <point x="207.48658797232503" y="345.0" type="curve" smooth="yes"/>
      <point x="231.80015237583876" y="518.0"/>
      <point x="339.84170478235455" y="609.0"/>
      <point x="468.5893683337564" y="609.0" type="curve" smooth="yes"/>
      <point x="527.5893683337564" y="609.0"/>
      <point x="576.3569291356014" y="586.0"/>
      <point x="614.3136732433985" y="543.0" type="curve"/>
      <point x="686.2920725072684" y="614.0" type="line"/>
      <point x="631.443440920007" y="672.0"/>
      <point x="563.378584291674" y="700.0"/>
      <point x="481.378584291674" y="700.0" type="curve" smooth="yes"/>
      <point x="305.378584291674" y="700.0"/>
      <point x="140.67043911917267" y="574.0"/>
    </contour>
    <contour>
      <point x="411.11899451851457" y="257.0" type="line"/>
      <point x="607.1189945185146" y="257.0" type="line"/>
      <point x="619.2055063029203" y="343.0" type="line"/>
      <point x="423.20550630292024" y="343.0" type="line"/>
    </contour>
    <contour>
      <point x="534.8378584291675" y="70.0" type="line"/>
      <point x="632.524348445596" y="82.0" type="line"/>
      <point x="669.2055063029203" y="343.0" type="line"/>
      <point x="573.2055063029203" y="343.0" type="line"/>
    </contour>
    <contour>
      <point x="459.97317594465005" y="690.0" type="move" name="top"/>
    </contour>
    <contour>
      <point x="363.0" y="0.0" type="move" name="bottom"/>
    </contour>
  </outline>
</glyph>
<glyph name="J" format="1">
  <advance width="573"/>
  <unicode hex="004A"/>
  <outline>
    <contour>
      <point x="60.03786931315588" y="107.0" type="line"/>
      <point x="91.48109255339327" y="39.0"/>
      <point x="166.59459165297608" y="-10.0"/>
      <point x="253.59459165297608" y="-10.0" type="curve" smooth="yes"/>
      <point x="380.5945916529761" y="-10.0"/>
      <point x="493.54056260267936" y="75.0"/>
      <point x="516.1676369897643" y="236.0" type="curve" smooth="yes"/>
      <point x="579.97317594465" y="690.0" type="line"/>
      <point x="485.97317594465005" y="690.0" type="line"/>
      <point x="423.5730453367883" y="246.0" type="line" smooth="yes"/>
      <point x="407.2703085113109" y="130.0"/>
      <point x="347.96218510678654" y="78.0"/>
      <point x="264.96218510678654" y="78.0" type="curve" smooth="yes"/>
      <point x="197.96218510678654" y="78.0"/>
      <point x="156.7243593295846" y="119.0"/>
      <point x="138.90815605648982" y="163.0" type="curve"/>
    </contour>
    <contour>
      <point x="292.5893683337564" y="609.0" type="line"/>
      <point x="528.5893683337564" y="609.0" type="line"/>
      <point x="539.97317594465" y="690.0" type="line"/>
      <point x="303.97317594465005" y="690.0" type="line"/>
    </contour>
    <contour>
      <point x="441.97317594465005" y="690.0" type="move" name="top"/>
    </contour>
  </outline>
</glyph>
<glyph name="K" format="1">
  <advance width="641.0"/>
  <unicode hex="004B"/>
  <outline>
    <contour>
      <point x="100.0" y="0.0" type="line"/>
      <point x="196.0" y="0.0" type="line"/>
      <point x="292.97317594465005" y="690.0" type="line"/>
      <point x="196.97317594465008" y="690.0" type="line"/>
    </contour>
    <contour>
      <point x="209.09195278339502" y="207.0" type="line"/>
      <point x="702.97317594465" y="690.0" type="line"/>
      <point x="585.97317594465" y="690.0" type="line"/>
      <point x="226.51901628649156" y="331.0" type="line"/>
    </contour>
    <contour>
      <point x="316.8000979558964" y="333.0" type="line"/>
      <point x="507.0" y="0.0" type="line"/>
      <point x="626.0" y="0.0" type="line"/>
      <point x="387.4974155503613" y="402.0" type="line"/>
    </contour>
  </outline>
</glyph>
<glyph name="M" format="1">
  <advance width="836"/>
  <unicode hex="004D"/>
  <outline>
    <contour>
      <point x="100.0" y="0.0" type="line"/>
      <point x="196.0" y="0.0" type="line"/>
      <point x="292.97317594465005" y="690.0" type="line"/>
      <point x="196.97317594465008" y="690.0" type="line"/>
    </contour>
    <contour>
      <point x="239.97317594465008" y="690.0" type="line"/>
      <point x="409.7838293788707" y="155.0" type="line"/>
      <point x="451.7838293788707" y="155.0" type="line"/>
      <point x="471.1352086755979" y="250.0" type="line"/>
      <point x="337.97317594465005" y="690.0" type="line"/>
    </contour>
    <contour>
      <point x="435.1352086755979" y="250.0" type="line"/>
      <point x="427.7838293788707" y="155.0" type="line"/>
      <point x="469.7838293788707" y="155.0" type="line"/>
      <point x="789.97317594465" y="690.0" type="line"/>
      <point x="691.97317594465" y="690.0" type="line"/>
    </contour>
    <contour>
      <point x="640.0" y="0.0" type="line"/>
      <point x="736.0" y="0.0" type="line"/>
      <point x="832.97317594465" y="690.0" type="line"/>
      <point x="736.97317594465" y="690.0" type="line"/>
    </contour>
  </outline>
</glyph>
<glyph name="T" format="1">
  <advance width="576"/>
  <unicode hex="0054"/>
  <outline>
    <contour>
      <point x="114.88666416024442" y="604.0" type="line"/>
      <point x="630.8866641602444" y="604.0" type="line"/>
      <point x="642.97317594465" y="690.0" type="line"/>
      <point x="126.97317594465008" y="690.0" type="line"/>
    </contour>
    <contour>
      <point x="240.0" y="0.0" type="line"/>
      <point x="336.0" y="0.0" type="line"/>
      <point x="432.97317594465005" y="690.0" type="line"/>
      <point x="336.97317594465005" y="690.0" type="line"/>
    </contour>
    <contour>
      <point x="384.97317594465005" y="690.0" type="move" name="top"/>
    </contour>
  </outline>
</glyph>
<glyph name="W" format="1">
  <advance width="961"/>
  <unicode hex="0057"/>
  <outline>
    <contour>
      <point x="116.97317594465008" y="690.0" type="line"/>
      <point x="238.0" y="0.0" type="line"/>
      <point x="293.0" y="0.0" type="line"/>
      <point x="310.4919201314296" y="96.0" type="line"/>
      <point x="218.97317594465008" y="690.0" type="line"/>
    </contour>
    <contour>
      <point x="276.4919201314296" y="96.0" type="line"/>
      <point x="271.0" y="0.0" type="line"/>
      <point x="318.0" y="0.0" type="line"/>
      <point x="572.983949102744" y="562.0" type="line"/>
      <point x="590.97317594465" y="690.0" type="line"/>
      <point x="538.97317594465" y="690.0" type="line"/>
    </contour>
    <contour>
      <point x="546.983949102744" y="562.0" type="line"/>
      <point x="644.0" y="0.0" type="line"/>
      <point x="699.0" y="0.0" type="line"/>
      <point x="716.4919201314295" y="96.0" type="line"/>
      <point x="619.97317594465" y="690.0" type="line"/>
      <point x="564.97317594465" y="690.0" type="line"/>
    </contour>
    <contour>
      <point x="682.4919201314295" y="96.0" type="line"/>
      <point x="677.0" y="0.0" type="line"/>
      <point x="724.0" y="0.0" type="line"/>
      <point x="1037.9731759446502" y="690.0" type="line"/>
      <point x="939.97317594465" y="690.0" type="line"/>
    </contour>
    <contour>
      <point x="576.97317594465" y="690.0" type="move" name="top"/>
    </contour>
  </outline>
</glyph>
<glyph name="bracketright" format="1">
  <advance width="309"/>
  <unicode hex="005D"/>
  <outline>
    <contour>
      <point x="-69.43250450208589" y="-245.0" type="line"/>
      <point x="174.5674954979141" y="-245.0" type="line"/>
      <point x="184.4053539270815" y="-175.0" type="line"/>
      <point x="-59.5946460729185" y="-175.0" type="line"/>
    </contour>
    <contour>
      <point x="64.78399263869791" y="710.0" type="line"/>
      <point x="308.7839926386979" y="710.0" type="line"/>
      <point x="318.6218510678653" y="780.0" type="line"/>
      <point x="74.62185106786531" y="780.0" type="line"/>
    </contour>
    <contour>
      <point x="92.56749549791411" y="-245.0" type="line"/>
      <point x="174.5674954979141" y="-245.0" type="line"/>
      <point x="318.6218510678653" y="780.0" type="line"/>
      <point x="236.6218510678653" y="780.0" type="line"/>
    </contour>
  </outline>
</glyph>
<glyph name="c" format="1">
  <advance width="504"/>
  <unicode hex="0063"/>
  <outline>
    <contour>
      <point x="90.41629034500264" y="252.0" type="curve" smooth="yes"/>
      <point x="65.82164427208414" y="77.0"/>
      <point x="159.59459165297608" y="-10.0"/>
      <point x="299.5945916529761" y="-10.0" type="curve" smooth="yes"/>
      <point x="363.5945916529761" y="-10.0"/>
      <point x="430.8270308511311" y="13.0"/>
      <point x="476.7297459086315" y="55.0" type="curve"/>
      <point x="433.14598183369174" y="122.0" type="line"/>
      <point x="402.2108384620248" y="94.0"/>
      <point x="359.40002176797697" y="74.0"/>
      <point x="307.40002176797697" y="74.0" type="curve" smooth="yes"/>
      <point x="228.40002176797697" y="74.0"/>
      <point x="167.55139018071566" y="132.0"/>
      <point x="184.41629034500264" y="252.0" type="curve" smooth="yes"/>
      <point x="201.28119050928962" y="372.0"/>
      <point x="281.9785081037546" y="441.0"/>
      <point x="363.9785081037546" y="441.0" type="curve" smooth="yes"/>
      <point x="410.9785081037546" y="441.0"/>
      <point x="445.30823224440917" y="422.0"/>
      <point x="466.23254803803985" y="393.0" type="curve"/>
      <point x="531.6487839631001" y="460.0" type="line"/>
      <point x="497.5514990206005" y="502.0"/>
      <point x="438.7839382187555" y="525.0"/>
      <point x="379.7839382187555" y="525.0" type="curve" smooth="yes"/>
      <point x="239.7839382187555" y="525.0"/>
      <point x="114.16769140970679" y="421.0"/>
    </contour>
    <contour>
      <point x="358.3785298717316" y="515.0" type="move" name="top"/>
    </contour>
    <contour>
      <point x="286.0" y="0.0" type="move" name="bottom"/>
    </contour>
  </outline>
</glyph>
<glyph name="g" format="1">
  <advance width="586"/>
  <unicode hex="0067"/>
  <outline>
    <contour>
      <point x="91.96223952672895" y="263.0" type="curve" smooth="yes"/>
      <point x="69.7567876437511" y="105.0"/>
      <point x="143.40540834702392" y="10.0"/>
      <point x="248.40540834702392" y="10.0" type="curve" smooth="yes"/>
      <point x="314.4054083470239" y="10.0"/>
      <point x="381.6054192310124" y="47.0"/>
      <point x="433.05408347023916" y="100.0" type="curve"/>
      <point x="442.75140106470417" y="169.0" type="line"/>
      <point x="392.2865226683941" y="123.0"/>
      <point x="335.3513792967272" y="95.0"/>
      <point x="285.3513792967272" y="95.0" type="curve" smooth="yes"/>
      <point x="215.35137929672717" y="95.0"/>
      <point x="170.78382937887068" y="155.0"/>
      <point x="186.38386203083613" y="266.0" type="curve" smooth="yes"/>
      <point x="201.43783498130165" y="373.1145833333333"/>
      <point x="262.96229394667137" y="448.0"/>
      <point x="345.96229394667137" y="448.0" type="curve" smooth="yes"/>
      <point x="405.96229394667137" y="448.0"/>
      <point x="459.93525221155176" y="398.0"/>
      <point x="443.77305622077677" y="283.0" type="curve"/>
      <point x="485.1784645678007" y="293.0" type="line"/>
      <point x="508.78932479780246" y="461.0"/>
      <point x="427.7839382187555" y="525.0"/>
      <point x="341.7839382187555" y="525.0" type="curve" smooth="yes"/>
      <point x="212.7839382187555" y="525.0"/>
      <point x="114.97580120924553" y="426.75"/>
    </contour>
    <contour>
      <point x="58.621578968153244" y="-145.0" type="line"/>
      <point x="101.82697643118868" y="-172.0"/>
      <point x="172.59453723303366" y="-195.0"/>
      <point x="237.59453723303366" y="-195.0" type="curve"/>
      <point x="369.5945372330337" y="-195.0"/>
      <point x="480.8215898521417" y="-108.0"/>
      <point x="502.46487839631" y="46.0" type="curve" smooth="yes"/>
      <point x="551.2325480380398" y="393.0" type="line"/>
      <point x="555.1676914097068" y="421.0"/>
      <point x="560.119048938457" y="442.0"/>
      <point x="569.1947331448264" y="471.0" type="curve" smooth="yes"/>
      <point x="583.3785298717316" y="515.0" type="line"/>
      <point x="497.3785298717316" y="515.0" type="line"/>
      <point x="464.0271505750044" y="420.0" type="line"/>
      <point x="457.82713969101593" y="383.0" type="line"/>
      <point x="410.88650090041716" y="49.0" type="line" smooth="yes"/>
      <point x="395.5675499178565" y="-60.0"/>
      <point x="330.68104901743936" y="-109.0"/>
      <point x="245.68104901743934" y="-109.0" type="curve"/>
      <point x="184.68104901743934" y="-109.0"/>
      <point x="145.35132487678476" y="-90.0"/>
      <point x="103.00538657904696" y="-64.0" type="curve"/>
    </contour>
    <contour>
      <point x="358.3785298717316" y="515.0" type="move" name="top"/>
    </contour>
  </outline>
</glyph>
<glyph name="k" format="1">
  <advance width="533"/>
  <unicode hex="006B"/>
  <outline>
    <contour>
      <point x="90.0" y="0.0" type="line"/>
      <point x="182.0" y="0.0" type="line"/>
      <point x="285.2975135062577" y="735.0" type="line"/>
      <point x="190.48669681220986" y="715.0" type="line"/>
    </contour>
    <contour>
      <point x="199.329778560597" y="166.0" type="line"/>
      <point x="575.3785298717316" y="515.0" type="line"/>
      <point x="458.3785298717316" y="515.0" type="line"/>
      <point x="215.63251538607437" y="282.0" type="line"/>
    </contour>
    <contour>
      <point x="271.9622395267289" y="263.0" type="line"/>
      <point x="406.0" y="0.0" type="line"/>
      <point x="518.0" y="0.0" type="line"/>
      <point x="343.53523044357485" y="324.0" type="line"/>
    </contour>
  </outline>
</glyph>
<glyph name="p" format="1">
  <advance width="586"/>
  <unicode hex="0070"/>
  <outline>
    <contour>
      <point x="147.3785298717316" y="515.0" type="line"/>
      <point x="149.19473314482636" y="471.0" type="line" smooth="yes"/>
      <point x="150.119048938457" y="442.0"/>
      <point x="149.16769140970678" y="421.0"/>
      <point x="145.23254803803982" y="393.0" type="curve" smooth="yes"/>
      <point x="61.891833059521716" y="-200.0" type="line"/>
      <point x="156.70264975356955" y="-180.0" type="line"/>
      <point x="235.82713969101593" y="383.0" type="line"/>
      <point x="240.02715057500438" y="420.0" type="line"/>
      <point x="233.3785298717316" y="515.0" type="line"/>
    </contour>
    <contour>
      <point x="173.2000653039309" y="222.0" type="line"/>
      <point x="149.58920507392915" y="54.0"/>
      <point x="230.59459165297608" y="-10.0"/>
      <point x="316.5945916529761" y="-10.0" type="curve"/>
      <point x="445.5945916529761" y="-10.0"/>
      <point x="543.92975679262" y="92.0"/>
      <point x="567.8216986920265" y="262.0" type="curve" smooth="yes"/>
      <point x="590.8703955832187" y="426.0"/>
      <point x="518.278443713261" y="525.0"/>
      <point x="412.7839382187555" y="525.0" type="curve" smooth="yes"/>
      <point x="346.7839382187555" y="525.0"/>
      <point x="279.3028456653622" y="486.0"/>
      <point x="227.4325589220283" y="430.0" type="curve"/>
      <point x="217.31361882345612" y="358.0" type="line"/>
      <point x="268.3406605585757" y="408.0"/>
      <point x="322.8379672690522" y="440.0"/>
      <point x="375.8379672690522" y="440.0" type="curve" smooth="yes"/>
      <point x="445.50168408321156" y="440.0"/>
      <point x="489.87689200183496" y="376.2386363636364"/>
      <point x="473.40007618791935" y="259.0" type="curve" smooth="yes"/>
      <point x="457.5111144087739" y="145.94416243654823"/>
      <point x="395.4162359250602" y="67.0"/>
      <point x="312.4162359250602" y="67.0" type="curve"/>
      <point x="252.41623592506022" y="67.0"/>
      <point x="198.4432776601798" y="117.0"/>
      <point x="214.60547365095482" y="232.0" type="curve"/>
    </contour>
  </outline>
</glyph>
<glyph name="t" format="1">
  <advance width="394"/>
  <unicode hex="0074"/>
  <outline>
    <contour>
      <point x="81.13526309554027" y="435.0" type="line"/>
      <point x="415.13526309554027" y="435.0" type="line"/>
      <point x="426.3785298717316" y="515.0" type="line"/>
      <point x="92.37852987173159" y="515.0" type="line"/>
    </contour>
    <contour>
      <point x="131.3622068747635" y="152.0" type="line" smooth="yes"/>
      <point x="116.74596006571478" y="48.0"/>
      <point x="178.59459165297608" y="-10.0"/>
      <point x="262.5945916529761" y="-10.0" type="curve"/>
      <point x="298.5945916529761" y="-10.0"/>
      <point x="336.8594591652976" y="-1.0"/>
      <point x="370.5459491817263" y="11.0" type="curve"/>
      <point x="365.64867512321524" y="90.0" type="line"/>
      <point x="336.1027259414889" y="79.0"/>
      <point x="312.2594809332746" y="73.0"/>
      <point x="290.2594809332746" y="73.0" type="curve"/>
      <point x="236.25948093327457" y="73.0"/>
      <point x="216.4757059743463" y="103.0"/>
      <point x="223.92437021357307" y="156.0" type="curve" smooth="yes"/>
      <point x="293.913705895364" y="654.0" type="line"/>
      <point x="199.10288920131615" y="634.0" type="line"/>
    </contour>
  </outline>
</glyph>
<glyph name="v" format="1">
  <advance width="496"/>
  <unicode hex="0076"/>
  <outline>
    <contour>
      <point x="82.37852987173159" y="515.0" type="line"/>
      <point x="212.0" y="0.0" type="line"/>
      <point x="265.0" y="0.0" type="line"/>
      <point x="276.64867512321524" y="90.0" type="line"/>
      <point x="181.3785298717316" y="515.0" type="line"/>
    </contour>
    <contour>
      <point x="250.64867512321524" y="90.0" type="line"/>
      <point x="239.0" y="0.0" type="line"/>
      <point x="284.0" y="0.0" type="line"/>
      <point x="558.3785298717316" y="515.0" type="line"/>
      <point x="463.3785298717316" y="515.0" type="line"/>
    </contour>
  </outline>
</glyph>
<glyph name="asciitilde" format="1">
  <advance width="660"/>
  <unicode hex="007E"/>
  <outline>
    <contour>
      <point x="155.30279124541983" y="301.0" type="curve"/>
      <point x="218.30279124541983" y="301.0" type="line"/>
      <point x="236.15686383167048" y="364.0"/>
      <point x="258.9676805257183" y="384.0"/>
      <point x="288.9676805257183" y="384.0" type="curve" smooth="yes"/>
      <point x="348.9676805257183" y="384.0"/>
      <point x="371.60008707190786" y="296.0"/>
      <point x="457.60008707190786" y="296.0" type="curve"/>
      <point x="530.6000870719079" y="296.0"/>
      <point x="585.891996319349" y="355.0"/>
      <point x="611.0866206242905" y="456.0" type="curve"/>
      <point x="548.0866206242905" y="456.0" type="line"/>
      <point x="530.2325480380398" y="393.0"/>
      <point x="507.421731343992" y="373.0"/>
      <point x="477.421731343992" y="373.0" type="curve" smooth="yes"/>
      <point x="419.421731343992" y="373.0"/>
      <point x="395.78932479780246" y="461.0"/>
      <point x="308.78932479780246" y="461.0" type="curve"/>
      <point x="234.78932479780246" y="461.0"/>
      <point x="180.49741555036135" y="402.0"/>
    </contour>
  </outline>
</glyph>
